<svg width="293" height="70" viewBox="0 0 293 70" fill="none" xmlns="http://www.w3.org/2000/svg">
<g filter="url(#filter0_d_29_21)">
<mask id="path-1-outside-1_29_21" maskUnits="userSpaceOnUse" x="4" y="0" width="285" height="62" fill="black">
<rect fill="white" x="4" width="285" height="62"/>
<path d="M19.48 60H11.08C9.26667 60 8.06667 59.7067 7.48 59.12C6.94667 58.5333 6.68 57.3067 6.68 55.44V6.72C6.68 4.85333 6.94667 3.62666 7.48 3.04C8.06667 2.45333 9.26667 2.16 11.08 2.16H19.48V60ZM44.2 48.8V55.6C44.2 57.4133 43.9067 58.6133 43.32 59.2C42.7333 59.7333 41.5067 60 39.64 60H22.68V48.8H44.2ZM39.4 25.2V30C39.4 31.92 39.2133 33.1467 38.84 33.68C38.4667 34.16 37.4 34.4 35.64 34.4H22.68V25.2H39.4ZM43.4 2.16V8.96C43.4 10.7733 43.1067 11.9733 42.52 12.56C41.9333 13.0933 40.7067 13.36 38.84 13.36H22.68V2.16H43.4ZM87.4081 26H83.0881C81.7015 26 80.7948 26.1867 80.3681 26.56C79.9948 26.9333 79.8081 27.5467 79.8081 28.4V51.68C79.8081 52.48 79.9948 53.0667 80.3681 53.44C80.7948 53.8133 81.7015 54 83.0881 54H87.4081V60H79.6481C74.3681 60 71.1148 59.0933 69.8881 57.28C69.3015 56.4267 68.8215 55.6 68.4481 54.8C68.1281 54 67.9148 52.7467 67.8081 51.04C67.5415 47.9467 67.4081 44.5067 67.4081 40.72C67.4081 36.9333 67.4348 34.2133 67.4881 32.56C67.5415 30.8533 67.7015 29.1467 67.9681 27.44C68.2881 25.68 68.6881 24.4267 69.1681 23.68C69.6481 22.88 70.3681 22.16 71.3281 21.52C72.2881 20.88 73.4081 20.48 74.6881 20.32C75.9681 20.1067 77.6215 20 79.6481 20H87.4081V26ZM89.8081 2.16H94.6881C97.0348 2.16 98.7948 2.74666 99.9681 3.92C101.195 5.04 101.808 6.50667 101.808 8.32V53.84C101.808 55.6533 101.195 57.1467 99.9681 58.32C98.7948 59.44 97.0348 60 94.6881 60H89.8081V2.16ZM149.655 33.2H140.855V60H132.455C130.642 60 129.442 59.7067 128.855 59.12C128.322 58.5333 128.055 57.3067 128.055 55.44V2.16H137.975C138.828 2.16 139.522 2.45333 140.055 3.04C140.588 3.62666 140.855 4.4 140.855 5.36V25.6H149.655V33.2ZM152.855 2.16H161.255C163.068 2.16 164.242 2.45333 164.775 3.04C165.362 3.62666 165.655 4.85333 165.655 6.72V60H155.735C154.882 60 154.188 59.7067 153.655 59.12C153.122 58.5333 152.855 57.76 152.855 56.8V2.16ZM191.918 20H201.038C201.891 20 202.584 20.2933 203.118 20.88C203.651 21.4667 203.918 22.24 203.918 23.2V51.6C203.918 52.4533 204.104 53.0667 204.478 53.44C204.904 53.8133 205.811 54 207.198 54H211.838V60H200.638C194.824 60 191.918 57.1467 191.918 51.44V20ZM229.438 59.44C229.438 59.8133 229.304 60 229.038 60H220.958C218.611 60 216.824 59.44 215.598 58.32C214.424 57.1467 213.838 55.6533 213.838 53.84V20H222.958C223.811 20 224.504 20.2933 225.038 20.88C225.571 21.4667 225.838 22.24 225.838 23.2V50.96C225.838 52.6133 226.184 53.5467 226.878 53.76C227.251 53.92 227.758 54 228.398 54H228.798C229.224 54 229.438 54.1867 229.438 54.56V59.44ZM263.826 60H258.946C256.599 60 254.812 59.44 253.586 58.32C252.412 57.1467 251.826 55.6533 251.826 53.84V8.32C251.826 6.50667 252.412 5.04 253.586 3.92C254.812 2.74666 256.599 2.16 258.946 2.16H263.826V60ZM266.226 20H273.986C276.012 20 277.666 20.1067 278.946 20.32C280.226 20.48 281.346 20.88 282.306 21.52C283.266 22.16 283.986 22.88 284.466 23.68C284.946 24.4267 285.346 25.6533 285.666 27.36C286.039 29.76 286.226 33.12 286.226 37.44C286.226 41.76 286.199 44.6933 286.146 46.24C286.092 47.7333 285.986 49.3333 285.826 51.04C285.719 52.7467 285.479 54 285.106 54.8C284.786 55.6 284.332 56.4267 283.746 57.28C283.212 58.08 282.492 58.64 281.586 58.96C279.612 59.6533 277.079 60 273.986 60H266.226V54H270.546C271.932 54 272.812 53.8133 273.186 53.44C273.612 53.0667 273.826 52.48 273.826 51.68V28.4C273.826 27.5467 273.612 26.9333 273.186 26.56C272.812 26.1867 271.932 26 270.546 26H266.226V20Z"/>
</mask>
<path d="M19.48 60H11.08C9.26667 60 8.06667 59.7067 7.48 59.12C6.94667 58.5333 6.68 57.3067 6.68 55.44V6.72C6.68 4.85333 6.94667 3.62666 7.48 3.04C8.06667 2.45333 9.26667 2.16 11.08 2.16H19.48V60ZM44.2 48.8V55.6C44.2 57.4133 43.9067 58.6133 43.32 59.2C42.7333 59.7333 41.5067 60 39.64 60H22.68V48.8H44.2ZM39.4 25.2V30C39.4 31.92 39.2133 33.1467 38.84 33.68C38.4667 34.16 37.4 34.4 35.64 34.4H22.68V25.2H39.4ZM43.4 2.16V8.96C43.4 10.7733 43.1067 11.9733 42.52 12.56C41.9333 13.0933 40.7067 13.36 38.84 13.36H22.68V2.16H43.4ZM87.4081 26H83.0881C81.7015 26 80.7948 26.1867 80.3681 26.56C79.9948 26.9333 79.8081 27.5467 79.8081 28.4V51.68C79.8081 52.48 79.9948 53.0667 80.3681 53.44C80.7948 53.8133 81.7015 54 83.0881 54H87.4081V60H79.6481C74.3681 60 71.1148 59.0933 69.8881 57.28C69.3015 56.4267 68.8215 55.6 68.4481 54.8C68.1281 54 67.9148 52.7467 67.8081 51.04C67.5415 47.9467 67.4081 44.5067 67.4081 40.72C67.4081 36.9333 67.4348 34.2133 67.4881 32.56C67.5415 30.8533 67.7015 29.1467 67.9681 27.44C68.2881 25.68 68.6881 24.4267 69.1681 23.68C69.6481 22.88 70.3681 22.16 71.3281 21.52C72.2881 20.88 73.4081 20.48 74.6881 20.32C75.9681 20.1067 77.6215 20 79.6481 20H87.4081V26ZM89.8081 2.16H94.6881C97.0348 2.16 98.7948 2.74666 99.9681 3.92C101.195 5.04 101.808 6.50667 101.808 8.32V53.84C101.808 55.6533 101.195 57.1467 99.9681 58.32C98.7948 59.44 97.0348 60 94.6881 60H89.8081V2.16ZM149.655 33.2H140.855V60H132.455C130.642 60 129.442 59.7067 128.855 59.12C128.322 58.5333 128.055 57.3067 128.055 55.44V2.16H137.975C138.828 2.16 139.522 2.45333 140.055 3.04C140.588 3.62666 140.855 4.4 140.855 5.36V25.6H149.655V33.2ZM152.855 2.16H161.255C163.068 2.16 164.242 2.45333 164.775 3.04C165.362 3.62666 165.655 4.85333 165.655 6.72V60H155.735C154.882 60 154.188 59.7067 153.655 59.12C153.122 58.5333 152.855 57.76 152.855 56.8V2.16ZM191.918 20H201.038C201.891 20 202.584 20.2933 203.118 20.88C203.651 21.4667 203.918 22.24 203.918 23.2V51.6C203.918 52.4533 204.104 53.0667 204.478 53.44C204.904 53.8133 205.811 54 207.198 54H211.838V60H200.638C194.824 60 191.918 57.1467 191.918 51.44V20ZM229.438 59.44C229.438 59.8133 229.304 60 229.038 60H220.958C218.611 60 216.824 59.44 215.598 58.32C214.424 57.1467 213.838 55.6533 213.838 53.84V20H222.958C223.811 20 224.504 20.2933 225.038 20.88C225.571 21.4667 225.838 22.24 225.838 23.2V50.96C225.838 52.6133 226.184 53.5467 226.878 53.76C227.251 53.92 227.758 54 228.398 54H228.798C229.224 54 229.438 54.1867 229.438 54.56V59.44ZM263.826 60H258.946C256.599 60 254.812 59.44 253.586 58.32C252.412 57.1467 251.826 55.6533 251.826 53.84V8.32C251.826 6.50667 252.412 5.04 253.586 3.92C254.812 2.74666 256.599 2.16 258.946 2.16H263.826V60ZM266.226 20H273.986C276.012 20 277.666 20.1067 278.946 20.32C280.226 20.48 281.346 20.88 282.306 21.52C283.266 22.16 283.986 22.88 284.466 23.68C284.946 24.4267 285.346 25.6533 285.666 27.36C286.039 29.76 286.226 33.12 286.226 37.44C286.226 41.76 286.199 44.6933 286.146 46.24C286.092 47.7333 285.986 49.3333 285.826 51.04C285.719 52.7467 285.479 54 285.106 54.8C284.786 55.6 284.332 56.4267 283.746 57.28C283.212 58.08 282.492 58.64 281.586 58.96C279.612 59.6533 277.079 60 273.986 60H266.226V54H270.546C271.932 54 272.812 53.8133 273.186 53.44C273.612 53.0667 273.826 52.48 273.826 51.68V28.4C273.826 27.5467 273.612 26.9333 273.186 26.56C272.812 26.1867 271.932 26 270.546 26H266.226V20Z" fill="white"/>
<path d="M19.48 60V62H21.48V60H19.48ZM7.48 59.12L6.00012 60.4653L6.03213 60.5006L6.06579 60.5342L7.48 59.12ZM7.48 3.04L6.06578 1.62579L6.03213 1.65944L6.00012 1.69465L7.48 3.04ZM19.48 2.16H21.48V0.159996H19.48V2.16ZM44.2 48.8H46.2V46.8H44.2V48.8ZM43.32 59.2L44.6653 60.6799L44.7006 60.6479L44.7342 60.6142L43.32 59.2ZM22.68 60H20.68V62H22.68V60ZM22.68 48.8V46.8H20.68V48.8H22.68ZM39.4 25.2H41.4V23.2H39.4V25.2ZM38.84 33.68L40.4187 34.9079L40.4496 34.8682L40.4785 34.8269L38.84 33.68ZM22.68 34.4H20.68V36.4H22.68V34.4ZM22.68 25.2V23.2H20.68V25.2H22.68ZM43.4 2.16H45.4V0.159996H43.4V2.16ZM42.52 12.56L43.8654 14.0399L43.9006 14.0079L43.9342 13.9742L42.52 12.56ZM22.68 13.36H20.68V15.36H22.68V13.36ZM22.68 2.16V0.159996H20.68V2.16H22.68ZM19.48 60V58H11.08V60V62H19.48V60ZM11.08 60V58C10.2662 58 9.68554 57.9327 9.29491 57.8372C8.88836 57.7378 8.8318 57.6434 8.89421 57.7058L7.48 59.12L6.06579 60.5342C6.71487 61.1833 7.55164 61.5288 8.34509 61.7228C9.15446 61.9206 10.0804 62 11.08 62V60ZM7.48 59.12L8.95988 57.7747C9.02897 57.8507 8.93251 57.7867 8.83435 57.3351C8.74217 56.9111 8.68 56.2924 8.68 55.44H6.68H4.68C4.68 56.4542 4.75116 57.3822 4.92565 58.1849C5.09416 58.96 5.39769 59.8027 6.00012 60.4653L7.48 59.12ZM6.68 55.44H8.68V6.72H6.68H4.68V55.44H6.68ZM6.68 6.72H8.68C8.68 5.86757 8.74217 5.24888 8.83435 4.82486C8.93251 4.37334 9.02897 4.30934 8.95988 4.38535L7.48 3.04L6.00012 1.69465C5.39769 2.35732 5.09416 3.19999 4.92565 3.97514C4.75116 4.77779 4.68 5.70576 4.68 6.72H6.68ZM7.48 3.04L8.89422 4.45421C8.8318 4.51663 8.88836 4.42217 9.29491 4.32279C9.68554 4.22731 10.2662 4.16 11.08 4.16V2.16V0.159996C10.0804 0.159996 9.15446 0.239354 8.34509 0.437199C7.55164 0.631156 6.71487 0.976704 6.06578 1.62579L7.48 3.04ZM11.08 2.16V4.16H19.48V2.16V0.159996H11.08V2.16ZM19.48 2.16H17.48V60H19.48H21.48V2.16H19.48ZM44.2 48.8H42.2V55.6H44.2H46.2V48.8H44.2ZM44.2 55.6H42.2C42.2 56.4138 42.1327 56.9945 42.0372 57.3851C41.9378 57.7916 41.8434 57.8482 41.9058 57.7858L43.32 59.2L44.7342 60.6142C45.3833 59.9651 45.7288 59.1284 45.9228 58.3349C46.1206 57.5255 46.2 56.5996 46.2 55.6H44.2ZM43.32 59.2L41.9747 57.7201C42.0507 57.651 41.9867 57.7475 41.5351 57.8456C41.1111 57.9378 40.4924 58 39.64 58V60V62C40.6542 62 41.5822 61.9288 42.3849 61.7544C43.16 61.5858 44.0027 61.2823 44.6653 60.6799L43.32 59.2ZM39.64 60V58H22.68V60V62H39.64V60ZM22.68 60H24.68V48.8H22.68H20.68V60H22.68ZM22.68 48.8V50.8H44.2V48.8V46.8H22.68V48.8ZM39.4 25.2H37.4V30H39.4H41.4V25.2H39.4ZM39.4 30H37.4C37.4 30.9074 37.3551 31.5837 37.2828 32.0591C37.2011 32.5958 37.1152 32.6564 37.2015 32.5331L38.84 33.68L40.4785 34.8269C40.9381 34.1703 41.1322 33.3509 41.2372 32.6609C41.3516 31.9096 41.4 31.0126 41.4 30H39.4ZM38.84 33.68L37.2613 32.4521C37.4006 32.2729 37.5311 32.2084 37.5356 32.2061C37.5413 32.2033 37.482 32.2326 37.321 32.2688C36.9917 32.3429 36.4501 32.4 35.64 32.4V34.4V36.4C36.5899 36.4 37.4616 36.3371 38.199 36.1712C38.8635 36.0217 39.7957 35.7089 40.4187 34.9079L38.84 33.68ZM35.64 34.4V32.4H22.68V34.4V36.4H35.64V34.4ZM22.68 34.4H24.68V25.2H22.68H20.68V34.4H22.68ZM22.68 25.2V27.2H39.4V25.2V23.2H22.68V25.2ZM43.4 2.16H41.4V8.96H43.4H45.4V2.16H43.4ZM43.4 8.96H41.4C41.4 9.77378 41.3327 10.3545 41.2372 10.7451C41.1378 11.1516 41.0434 11.2082 41.1058 11.1458L42.52 12.56L43.9342 13.9742C44.5833 13.3251 44.9288 12.4884 45.1228 11.6949C45.3206 10.8855 45.4 9.95955 45.4 8.96H43.4ZM42.52 12.56L41.1747 11.0801C41.2507 11.011 41.1867 11.1075 40.7351 11.2056C40.3111 11.2978 39.6924 11.36 38.84 11.36V13.36V15.36C39.8542 15.36 40.7822 15.2888 41.5849 15.1144C42.36 14.9458 43.2027 14.6423 43.8654 14.0399L42.52 12.56ZM38.84 13.36V11.36H22.68V13.36V15.36H38.84V13.36ZM22.68 13.36H24.68V2.16H22.68H20.68V13.36H22.68ZM22.68 2.16V4.16H43.4V2.16V0.159996H22.68V2.16ZM87.4081 26V28H89.4081V26H87.4081ZM80.3681 26.56L79.0511 25.0548L79.001 25.0987L78.9539 25.1458L80.3681 26.56ZM80.3681 53.44L78.9539 54.8542L79.001 54.9013L79.0511 54.9452L80.3681 53.44ZM87.4081 54H89.4081V52H87.4081V54ZM87.4081 60V62H89.4081V60H87.4081ZM69.8881 57.28L71.5447 56.1594L71.5405 56.1531L71.5362 56.1469L69.8881 57.28ZM68.4481 54.8L66.5912 55.5428L66.612 55.5949L66.6358 55.6458L68.4481 54.8ZM67.8081 51.04L69.8042 50.9152L69.8028 50.8917L69.8007 50.8682L67.8081 51.04ZM67.4881 32.56L69.4871 32.6245L69.4871 32.6225L67.4881 32.56ZM67.9681 27.44L66.0004 27.0822L65.9959 27.1067L65.9921 27.1312L67.9681 27.44ZM69.1681 23.68L70.8505 24.7615L70.8672 24.7355L70.8831 24.709L69.1681 23.68ZM71.3281 21.52L70.2187 19.8559L70.2187 19.8559L71.3281 21.52ZM74.6881 20.32L74.9362 22.3046L74.9767 22.2995L75.0169 22.2928L74.6881 20.32ZM87.4081 20H89.4081V18H87.4081V20ZM89.8081 2.16V0.159996H87.8081V2.16H89.8081ZM99.9681 3.92L98.5539 5.33421L98.586 5.36633L98.6196 5.39697L99.9681 3.92ZM99.9681 58.32L101.349 59.7667L101.351 59.7653L99.9681 58.32ZM89.8081 60H87.8081V62H89.8081V60ZM87.4081 26V24H83.0881V26V28H87.4081V26ZM83.0881 26V24C82.3192 24 81.5988 24.0506 80.9648 24.1811C80.3642 24.3047 79.6402 24.5394 79.0511 25.0548L80.3681 26.56L81.6851 28.0652C81.5227 28.2073 81.4654 28.1619 81.7714 28.0989C82.0441 28.0428 82.4704 28 83.0881 28V26ZM80.3681 26.56L78.9539 25.1458C78.0306 26.0691 77.8081 27.3294 77.8081 28.4H79.8081H81.8081C81.8081 28.1096 81.841 27.9496 81.8615 27.8823C81.8795 27.823 81.8725 27.884 81.7823 27.9742L80.3681 26.56ZM79.8081 28.4H77.8081V51.68H79.8081H81.8081V28.4H79.8081ZM79.8081 51.68H77.8081C77.8081 52.7415 78.0506 53.9509 78.9539 54.8542L80.3681 53.44L81.7823 52.0258C81.8566 52.1 81.8665 52.1529 81.854 52.1136C81.8385 52.0649 81.8081 51.9323 81.8081 51.68H79.8081ZM80.3681 53.44L79.0511 54.9452C79.6402 55.4606 80.3642 55.6953 80.9648 55.8189C81.5988 55.9494 82.3192 56 83.0881 56V54V52C82.4704 52 82.0441 51.9572 81.7714 51.9011C81.4654 51.8381 81.5227 51.7927 81.6851 51.9348L80.3681 53.44ZM83.0881 54V56H87.4081V54V52H83.0881V54ZM87.4081 54H85.4081V60H87.4081H89.4081V54H87.4081ZM87.4081 60V58H79.6481V60V62H87.4081V60ZM79.6481 60V58C77.0999 58 75.1676 57.7787 73.785 57.3934C72.3786 57.0015 71.781 56.5087 71.5447 56.1594L69.8881 57.28L68.2316 58.4006C69.2219 59.8646 70.8643 60.7319 72.7112 61.2466C74.582 61.768 76.9164 62 79.6481 62V60ZM69.8881 57.28L71.5362 56.1469C71.0017 55.3695 70.5799 54.6387 70.2605 53.9542L68.4481 54.8L66.6358 55.6458C67.063 56.5613 67.6012 57.4838 68.24 58.4131L69.8881 57.28ZM68.4481 54.8L70.3051 54.0572C70.1083 53.5652 69.908 52.5757 69.8042 50.9152L67.8081 51.04L65.812 51.1648C65.9216 52.9176 66.148 54.4348 66.5912 55.5428L68.4481 54.8ZM67.8081 51.04L69.8007 50.8682C69.5399 47.8428 69.4081 44.4613 69.4081 40.72H67.4081H65.4081C65.4081 44.5521 65.543 48.0506 65.8155 51.2118L67.8081 51.04ZM67.4081 40.72H69.4081C69.4081 36.9347 69.4349 34.2428 69.4871 32.6245L67.4881 32.56L65.4892 32.4955C65.4347 34.1839 65.4081 36.932 65.4081 40.72H67.4081ZM67.4881 32.56L69.4871 32.6225C69.5379 30.9992 69.6901 29.3748 69.9441 27.7488L67.9681 27.44L65.9921 27.1312C65.7128 28.9185 65.545 30.7074 65.4891 32.4975L67.4881 32.56ZM67.9681 27.44L69.9359 27.7978C70.2469 26.0872 70.5935 25.1612 70.8505 24.7615L69.1681 23.68L67.4858 22.5985C66.7827 23.6921 66.3294 25.2728 66.0004 27.0822L67.9681 27.44ZM69.1681 23.68L70.8831 24.709C71.1791 24.2157 71.667 23.6978 72.4375 23.1841L71.3281 21.52L70.2187 19.8559C69.0693 20.6222 68.1172 21.5443 67.4531 22.651L69.1681 23.68ZM71.3281 21.52L72.4375 23.1841C73.11 22.7358 73.9275 22.4306 74.9362 22.3046L74.6881 20.32L74.4401 18.3354C72.8887 18.5294 71.4662 19.0242 70.2187 19.8559L71.3281 21.52ZM74.6881 20.32L75.0169 22.2928C76.1456 22.1047 77.6777 22 79.6481 22V20V18C77.5652 18 75.7906 18.1087 74.3593 18.3472L74.6881 20.32ZM79.6481 20V22H87.4081V20V18H79.6481V20ZM87.4081 20H85.4081V26H87.4081H89.4081V20H87.4081ZM89.8081 2.16V4.16H94.6881V2.16V0.159996H89.8081V2.16ZM94.6881 2.16V4.16C96.7265 4.16 97.8879 4.66824 98.5539 5.33421L99.9681 3.92L101.382 2.50578C99.7016 0.82509 97.3431 0.159996 94.6881 0.159996V2.16ZM99.9681 3.92L98.6196 5.39697C99.3905 6.10089 99.8081 7.01109 99.8081 8.32H101.808H103.808C103.808 6.00225 102.999 3.97911 101.317 2.44303L99.9681 3.92ZM101.808 8.32H99.8081V53.84H101.808H103.808V8.32H101.808ZM101.808 53.84H99.8081C99.8081 55.149 99.3888 56.1065 98.5857 56.8747L99.9681 58.32L101.351 59.7653C103.001 58.1869 103.808 56.1576 103.808 53.84H101.808ZM99.9681 58.32L98.5872 56.8733C97.9237 57.5066 96.7491 58 94.6881 58V60V62C97.3204 62 99.6659 61.3734 101.349 59.7667L99.9681 58.32ZM94.6881 60V58H89.8081V60V62H94.6881V60ZM89.8081 60H91.8081V2.16H89.8081H87.8081V60H89.8081ZM149.655 33.2V35.2H151.655V33.2H149.655ZM140.855 33.2V31.2H138.855V33.2H140.855ZM140.855 60V62H142.855V60H140.855ZM128.855 59.12L127.375 60.4653L127.407 60.5006L127.441 60.5342L128.855 59.12ZM128.055 2.16V0.159996H126.055V2.16H128.055ZM140.055 3.04L138.575 4.38534L138.575 4.38535L140.055 3.04ZM140.855 25.6H138.855V27.6H140.855V25.6ZM149.655 25.6H151.655V23.6H149.655V25.6ZM152.855 2.16V0.159996H150.855V2.16H152.855ZM164.775 3.04L163.295 4.38534L163.327 4.42056L163.361 4.45421L164.775 3.04ZM165.655 60V62H167.655V60H165.655ZM153.655 59.12L155.135 57.7747L155.135 57.7747L153.655 59.12ZM149.655 33.2V31.2H140.855V33.2V35.2H149.655V33.2ZM140.855 33.2H138.855V60H140.855H142.855V33.2H140.855ZM140.855 60V58H132.455V60V62H140.855V60ZM132.455 60V58C131.641 58 131.061 57.9327 130.67 57.8372C130.263 57.7378 130.207 57.6434 130.269 57.7058L128.855 59.12L127.441 60.5342C128.09 61.1833 128.927 61.5288 129.72 61.7228C130.529 61.9206 131.455 62 132.455 62V60ZM128.855 59.12L130.335 57.7747C130.404 57.8507 130.308 57.7867 130.209 57.3351C130.117 56.9111 130.055 56.2924 130.055 55.44H128.055H126.055C126.055 56.4542 126.126 57.3822 126.301 58.1849C126.469 58.96 126.773 59.8027 127.375 60.4653L128.855 59.12ZM128.055 55.44H130.055V2.16H128.055H126.055V55.44H128.055ZM128.055 2.16V4.16H137.975V2.16V0.159996H128.055V2.16ZM137.975 2.16V4.16C138.313 4.16 138.452 4.25004 138.575 4.38534L140.055 3.04L141.535 1.69466C140.591 0.656622 139.344 0.159996 137.975 0.159996V2.16ZM140.055 3.04L138.575 4.38535C138.706 4.52965 138.855 4.78718 138.855 5.36H140.855H142.855C142.855 4.01281 142.47 2.72368 141.535 1.69465L140.055 3.04ZM140.855 5.36H138.855V25.6H140.855H142.855V5.36H140.855ZM140.855 25.6V27.6H149.655V25.6V23.6H140.855V25.6ZM149.655 25.6H147.655V33.2H149.655H151.655V25.6H149.655ZM152.855 2.16V4.16H161.255V2.16V0.159996H152.855V2.16ZM161.255 2.16V4.16C162.071 4.16 162.64 4.2277 163.01 4.32028C163.401 4.41808 163.4 4.50032 163.295 4.38534L164.775 3.04L166.255 1.69466C165.617 0.993012 164.762 0.635246 163.98 0.439712C163.177 0.238963 162.253 0.159996 161.255 0.159996V2.16ZM164.775 3.04L163.361 4.45421C163.291 4.384 163.388 4.43807 163.49 4.86514C163.587 5.2723 163.655 5.87614 163.655 6.72H165.655H167.655C167.655 5.69719 167.576 4.75437 167.38 3.93485C167.189 3.13526 166.846 2.28267 166.189 1.62579L164.775 3.04ZM165.655 6.72H163.655V60H165.655H167.655V6.72H165.655ZM165.655 60V58H155.735V60V62H165.655V60ZM155.735 60V58C155.397 58 155.258 57.91 155.135 57.7747L153.655 59.12L152.175 60.4653C153.119 61.5034 154.366 62 155.735 62V60ZM153.655 59.12L155.135 57.7747C155.004 57.6304 154.855 57.3728 154.855 56.8H152.855H150.855C150.855 58.1472 151.24 59.4363 152.175 60.4653L153.655 59.12ZM152.855 56.8H154.855V2.16H152.855H150.855V56.8H152.855ZM191.918 20V18H189.918V20H191.918ZM203.118 20.88L204.597 19.5347L204.597 19.5347L203.118 20.88ZM204.478 53.44L203.063 54.8542L203.11 54.9013L203.16 54.9452L204.478 53.44ZM211.838 54H213.838V52H211.838V54ZM211.838 60V62H213.838V60H211.838ZM215.598 58.32L214.183 59.7342L214.215 59.7663L214.249 59.797L215.598 58.32ZM213.838 20V18H211.838V20H213.838ZM225.038 20.88L226.517 19.5347L226.517 19.5346L225.038 20.88ZM226.878 53.76L227.665 51.9217L227.567 51.8798L227.466 51.8484L226.878 53.76ZM191.918 20V22H201.038V20V18H191.918V20ZM201.038 20V22C201.376 22 201.515 22.09 201.638 22.2253L203.118 20.88L204.597 19.5347C203.654 18.4966 202.406 18 201.038 18V20ZM203.118 20.88L201.638 22.2253C201.769 22.3696 201.918 22.6272 201.918 23.2H203.918H205.918C205.918 21.8528 205.533 20.5637 204.597 19.5347L203.118 20.88ZM203.918 23.2H201.918V51.6H203.918H205.918V23.2H203.918ZM203.918 51.6H201.918C201.918 52.6706 202.14 53.9309 203.063 54.8542L204.478 53.44L205.892 52.0258C205.982 52.116 205.989 52.177 205.971 52.1177C205.95 52.0504 205.918 51.8903 205.918 51.6H203.918ZM204.478 53.44L203.16 54.9452C203.75 55.4606 204.474 55.6953 205.074 55.8189C205.708 55.9494 206.429 56 207.198 56V54V52C206.58 52 206.153 51.9572 205.881 51.9011C205.575 51.8381 205.632 51.7927 205.795 51.9348L204.478 53.44ZM207.198 54V56H211.838V54V52H207.198V54ZM211.838 54H209.838V60H211.838H213.838V54H211.838ZM211.838 60V58H200.638V60V62H211.838V60ZM200.638 60V58C198.03 58 196.443 57.3602 195.499 56.4328C194.561 55.512 193.918 53.9756 193.918 51.44H191.918H189.918C189.918 54.6111 190.728 57.3547 192.696 59.2872C194.658 61.2131 197.432 62 200.638 62V60ZM191.918 51.44H193.918V20H191.918H189.918V51.44H191.918ZM229.438 59.44H227.438C227.438 59.4207 227.439 59.3406 227.467 59.2218C227.495 59.102 227.56 58.9073 227.71 58.6975C227.869 58.4753 228.092 58.2808 228.367 58.1526C228.631 58.0294 228.872 58 229.038 58V60V62C229.697 62 230.458 61.7322 230.965 61.0225C231.383 60.4368 231.438 59.8044 231.438 59.44H229.438ZM229.038 60V58H220.958V60V62H229.038V60ZM220.958 60V58C218.904 58 217.676 57.5098 216.946 56.843L215.598 58.32L214.249 59.797C215.972 61.3702 218.317 62 220.958 62V60ZM215.598 58.32L217.012 56.9058C216.25 56.1442 215.838 55.1771 215.838 53.84H213.838H211.838C211.838 56.1296 212.598 58.1492 214.183 59.7342L215.598 58.32ZM213.838 53.84H215.838V20H213.838H211.838V53.84H213.838ZM213.838 20V22H222.958V20V18H213.838V20ZM222.958 20V22C223.296 22 223.435 22.09 223.558 22.2253L225.038 20.88L226.517 19.5346C225.574 18.4966 224.326 18 222.958 18V20ZM225.038 20.88L223.558 22.2253C223.689 22.3696 223.838 22.6272 223.838 23.2H225.838H227.838C227.838 21.8528 227.453 20.5637 226.517 19.5347L225.038 20.88ZM225.838 23.2H223.838V50.96H225.838H227.838V23.2H225.838ZM225.838 50.96H223.838C223.838 51.8886 223.93 52.8077 224.223 53.5964C224.526 54.414 225.146 55.3197 226.289 55.6716L226.878 53.76L227.466 51.8484C227.659 51.9079 227.809 52.0171 227.904 52.1214C227.986 52.2123 227.995 52.2634 227.972 52.2036C227.95 52.1446 227.914 52.0182 227.885 51.7993C227.856 51.5837 227.838 51.3067 227.838 50.96H225.838ZM226.878 53.76L226.09 55.5983C226.814 55.9086 227.625 56 228.398 56V54V52C228.158 52 227.978 51.9848 227.849 51.9645C227.786 51.9545 227.74 51.944 227.709 51.9355C227.677 51.9269 227.664 51.9212 227.665 51.9217L226.878 53.76ZM228.398 54V56H228.798V54V52H228.398V54ZM228.798 54V56C228.763 56 228.364 55.9983 227.96 55.6452C227.506 55.2474 227.438 54.7562 227.438 54.56H229.438H231.438C231.438 53.9905 231.262 53.2193 230.595 52.6348C229.978 52.0951 229.258 52 228.798 52V54ZM229.438 54.56H227.438V59.44H229.438H231.438V54.56H229.438ZM263.826 60V62H265.826V60H263.826ZM253.586 58.32L252.171 59.7342L252.204 59.7663L252.237 59.797L253.586 58.32ZM253.586 3.92L254.967 5.36671L254.968 5.36528L253.586 3.92ZM263.826 2.16H265.826V0.159996H263.826V2.16ZM266.226 20V18H264.226V20H266.226ZM278.946 20.32L278.617 22.2928L278.657 22.2995L278.698 22.3046L278.946 20.32ZM282.306 21.52L283.415 19.8559L283.415 19.8559L282.306 21.52ZM284.466 23.68L282.751 24.709L282.767 24.7355L282.783 24.7615L284.466 23.68ZM285.666 27.36L287.642 27.0526L287.637 27.0219L287.631 26.9914L285.666 27.36ZM286.146 46.24L288.144 46.3114L288.144 46.3089L286.146 46.24ZM285.826 51.04L283.834 50.8533L283.831 50.8842L283.83 50.9152L285.826 51.04ZM285.106 54.8L283.293 53.9542L283.27 54.0051L283.249 54.0572L285.106 54.8ZM283.746 57.28L282.098 56.1469L282.089 56.1587L282.082 56.1706L283.746 57.28ZM281.586 58.96L282.249 60.8469L282.251 60.846L281.586 58.96ZM266.226 60H264.226V62H266.226V60ZM266.226 54V52H264.226V54H266.226ZM273.186 53.44L271.869 51.9348L271.819 51.9787L271.771 52.0258L273.186 53.44ZM273.186 26.56L271.771 27.9742L271.819 28.0213L271.869 28.0652L273.186 26.56ZM266.226 26H264.226V28H266.226V26ZM263.826 60V58H258.946V60V62H263.826V60ZM258.946 60V58C256.892 58 255.664 57.5098 254.934 56.843L253.586 58.32L252.237 59.797C253.96 61.3702 256.305 62 258.946 62V60ZM253.586 58.32L255 56.9058C254.238 56.1442 253.826 55.1771 253.826 53.84H251.826H249.826C249.826 56.1296 250.586 58.1492 252.171 59.7342L253.586 58.32ZM251.826 53.84H253.826V8.32H251.826H249.826V53.84H251.826ZM251.826 8.32H253.826C253.826 6.98223 254.237 6.06295 254.967 5.36671L253.586 3.92L252.205 2.47329C250.587 4.01705 249.826 6.0311 249.826 8.32H251.826ZM253.586 3.92L254.968 5.36528C255.7 4.66539 256.915 4.16 258.946 4.16V2.16V0.159996C256.283 0.159996 253.925 0.827935 252.203 2.47471L253.586 3.92ZM258.946 2.16V4.16H263.826V2.16V0.159996H258.946V2.16ZM263.826 2.16H261.826V60H263.826H265.826V2.16H263.826ZM266.226 20V22H273.986V20V18H266.226V20ZM273.986 20V22C275.956 22 277.488 22.1047 278.617 22.2928L278.946 20.32L279.274 18.3472C277.843 18.1087 276.069 18 273.986 18V20ZM278.946 20.32L278.698 22.3046C279.706 22.4306 280.524 22.7358 281.196 23.1841L282.306 21.52L283.415 19.8559C282.168 19.0242 280.745 18.5294 279.194 18.3354L278.946 20.32ZM282.306 21.52L281.196 23.1841C281.967 23.6978 282.455 24.2157 282.751 24.709L284.466 23.68L286.181 22.651C285.517 21.5443 284.564 20.6222 283.415 19.8559L282.306 21.52ZM284.466 23.68L282.783 24.7615C283.046 25.1702 283.391 26.0799 283.7 27.7286L285.666 27.36L287.631 26.9914C287.3 25.2267 286.845 23.6832 286.148 22.5985L284.466 23.68ZM285.666 27.36L283.689 27.6674C284.039 29.9165 284.226 33.1569 284.226 37.44H286.226H288.226C288.226 33.0831 288.039 29.6035 287.642 27.0526L285.666 27.36ZM286.226 37.44H284.226C284.226 41.7639 284.199 44.664 284.147 46.1711L286.146 46.24L288.144 46.3089C288.199 44.7227 288.226 41.7561 288.226 37.44H286.226ZM286.146 46.24L284.147 46.1686C284.095 47.6184 283.991 49.1796 283.834 50.8533L285.826 51.04L287.817 51.2267C287.98 49.4871 288.089 47.8483 288.144 46.3114L286.146 46.24ZM285.826 51.04L283.83 50.9152C283.727 52.5615 283.503 53.5056 283.293 53.9542L285.106 54.8L286.918 55.6458C287.455 54.4944 287.711 52.9318 287.822 51.1648L285.826 51.04ZM285.106 54.8L283.249 54.0572C282.993 54.6955 282.617 55.392 282.098 56.1469L283.746 57.28L285.394 58.4131C286.048 57.4614 286.578 56.5045 286.963 55.5428L285.106 54.8ZM283.746 57.28L282.082 56.1706C281.788 56.6105 281.419 56.898 280.92 57.074L281.586 58.96L282.251 60.846C283.566 60.382 284.636 59.5495 285.41 58.3894L283.746 57.28ZM281.586 58.96L280.923 57.0731C279.238 57.6649 276.951 58 273.986 58V60V62C277.207 62 279.986 61.6418 282.249 60.8469L281.586 58.96ZM273.986 60V58H266.226V60V62H273.986V60ZM266.226 60H268.226V54H266.226H264.226V60H266.226ZM266.226 54V56H270.546V54V52H266.226V54ZM270.546 54V56C271.312 56 272.032 55.9498 272.661 55.8165C273.243 55.693 274.008 55.4461 274.6 54.8542L273.186 53.44L271.771 52.0258C271.894 51.9033 271.992 51.8602 271.995 51.859C271.999 51.857 271.953 51.8776 271.831 51.9035C271.579 51.9568 271.166 52 270.546 52V54ZM273.186 53.44L274.503 54.9452C275.519 54.056 275.826 52.8116 275.826 51.68H273.826H271.826C271.826 51.9094 271.794 52.0141 271.786 52.0365C271.783 52.0453 271.786 52.0338 271.802 52.0106C271.818 51.9866 271.84 51.9596 271.869 51.9348L273.186 53.44ZM273.826 51.68H275.826V28.4H273.826H271.826V51.68H273.826ZM273.826 28.4H275.826C275.826 27.2636 275.544 25.966 274.503 25.0548L273.186 26.56L271.869 28.0652C271.785 27.992 271.767 27.9296 271.777 27.957C271.791 27.9979 271.826 28.1308 271.826 28.4H273.826ZM273.186 26.56L274.6 25.1458C274.008 24.5539 273.243 24.307 272.661 24.1835C272.032 24.0501 271.312 24 270.546 24V26V28C271.166 28 271.579 28.0432 271.831 28.0965C271.953 28.1224 271.999 28.143 271.995 28.141C271.992 28.1398 271.894 28.0967 271.771 27.9742L273.186 26.56ZM270.546 26V24H266.226V26V28H270.546V26ZM266.226 26H268.226V20H266.226H264.226V26H266.226Z" fill="#4CB050" mask="url(#path-1-outside-1_29_21)"/>
</g>
<defs>
<filter id="filter0_d_29_21" x="0.679993" y="0.159912" width="291.546" height="69.8401" filterUnits="userSpaceOnUse" color-interpolation-filters="sRGB">
<feFlood flood-opacity="0" result="BackgroundImageFix"/>
<feColorMatrix in="SourceAlpha" type="matrix" values="0 0 0 0 0 0 0 0 0 0 0 0 0 0 0 0 0 0 127 0" result="hardAlpha"/>
<feOffset dy="4"/>
<feGaussianBlur stdDeviation="2"/>
<feComposite in2="hardAlpha" operator="out"/>
<feColorMatrix type="matrix" values="0 0 0 0 0 0 0 0 0 0 0 0 0 0 0 0 0 0 0.25 0"/>
<feBlend mode="normal" in2="BackgroundImageFix" result="effect1_dropShadow_29_21"/>
<feBlend mode="normal" in="SourceGraphic" in2="effect1_dropShadow_29_21" result="shape"/>
</filter>
</defs>
</svg>
