<svg width="42" height="43" viewBox="0 0 42 43" fill="none" xmlns="http://www.w3.org/2000/svg">
<path d="M0 8.33337C0 3.9151 3.58172 0.333374 8 0.333374H21H34C38.4183 0.333374 42 3.9151 42 8.33337V34.3334C42 38.7517 38.4183 42.3334 34 42.3334H8C3.58172 42.3334 0 38.7517 0 34.3334V8.33337Z" fill="#282830"/>
<path d="M29.7271 20.6655C29.8583 20.1405 29.8583 19.5498 29.8583 18.9592C29.8583 13.578 25.199 9.24672 19.6865 9.83735C18.1115 10.0342 16.6021 10.6248 15.3552 11.478" stroke="white" stroke-width="2.25" stroke-miterlimit="10" stroke-linecap="round" stroke-linejoin="round"/>
<path d="M12.5334 14.9563C12.0741 15.875 11.7459 16.925 11.6147 17.975C11.1553 21.8469 13.1897 25.325 16.2741 27.0313V28.8688C16.2741 29.7875 16.9959 30.5094 17.9147 30.5094H23.4272C24.3459 30.5094 25.0678 29.7875 25.0678 28.8688V27.0313C26.2491 26.375 27.2334 25.5219 28.0209 24.4719" stroke="white" stroke-width="2.25" stroke-miterlimit="10" stroke-linecap="round" stroke-linejoin="round"/>
<path d="M22.049 34.4469H19.424C18.5052 34.4469 17.7833 33.725 17.7833 32.8063V30.5094H23.6896V32.8063C23.6896 33.725 22.9677 34.4469 22.049 34.4469Z" stroke="white" stroke-width="2.25" stroke-miterlimit="10" stroke-linecap="round" stroke-linejoin="round"/>
</svg>
